<?xml version="1.0" encoding="utf-8"?>
<!-- Generator: Adobe Illustrator 23.1.0, SVG Export Plug-In . SVG Version: 6.00 Build 0)  -->
<svg version="1.1"
	 id="svg824" inkscape:version="1.1 (c68e22c387, 2021-05-23)" sodipodi:docname="QQ闁搞儱澧芥晶0210828211017.svg" xmlns:inkscape="http://www.inkscape.org/namespaces/inkscape" xmlns:sodipodi="http://sodipodi.sourceforge.net/DTD/sodipodi-0.dtd" xmlns:svg="http://www.w3.org/2000/svg"
	 xmlns="http://www.w3.org/2000/svg" xmlns:xlink="http://www.w3.org/1999/xlink" x="0px" y="0px" viewBox="0 0 2160 2160"
	 style="enable-background:new 0 0 2160 2160;" xml:space="preserve">
<style type="text/css">
	.st0{opacity:0;}
	.st1{fill:#FFFFFF;}
	.st2{fill:#BDA6EF;}
</style>
<sodipodi:namedview  bordercolor="#666666" borderopacity="1.0" id="namedview826" inkscape:current-layer="layer1" inkscape:cx="795.54825" inkscape:cy="1297.8656" inkscape:pagecheckerboard="0" inkscape:pageopacity="0.0" inkscape:pageshadow="2" inkscape:window-height="872" inkscape:window-maximized="0" inkscape:window-width="1336" inkscape:window-x="-3" inkscape:window-y="5" inkscape:zoom="0.19609119" pagecolor="#ffffff" showgrid="false">
	</sodipodi:namedview>
<g id="layer2" inkscape:groupmode="layer" inkscape:label="Image 2">
</g>
<g id="g830" inkscape:groupmode="layer" inkscape:label="Image" class="st0">
	<path id="path2475-4" sodipodi:nodetypes="ssssssssssssssssssssscsssssssss" class="st1" d="M1042.4,1943.2
		c-107.7-5.1-194-23.1-286.9-60c-31.3-12.4-61.5-26.9-92.6-44.4c-48.6-27.3-106.5-68.5-147-104.4c-43.2-38.3-77.9-74.6-118.6-124
		c-39.8-48.3-81.2-116.1-108.8-178.2c-36.2-81.5-57.6-163.2-67.5-258c-6.9-66.2-6.8-126,0.5-194.6c8.6-81.1,27-155.8,55.8-226.8
		c22.3-54.9,44.7-97.3,77.9-147c19.2-28.9,27.7-40.3,47-63.5c27.6-33.1,37.1-43.5,66.5-73c54.6-54.7,94.2-86.9,155.9-126.6
		c64.2-41.3,137-73.7,218.3-97.1c44.1-12.7,97.6-21.9,160.9-27.7c27.3-2.5,123.5-2.5,150.8,0c99.1,9,163.4,24,249.3,57.8
		c49.3,19.4,100.1,46.3,146,77.2c17.2,11.6,44.3,30.7,52.4,37c52.6,40.9,112.7,100.5,157.3,155.9c4.3,5.4,8.4,10.3,9.2,11
		c2.3,2.3,17.3,22.8,28,38.2c70.3,101.6,116.5,218.3,135.5,342.6c8.5,55.8,13,121.9,11.1,164.2c-4.2,94.2-17.1,172.3-40.5,244.7
		c-15.1,46.6-27.7,77.9-47.4,117.2c-25.4,50.7-60.3,105.6-90.4,142.2c-50.1,60.8-77.9,90-126.7,132.7c-40,35-98.2,75.6-148.3,103.4
		c-72.5,40.3-160.2,71.5-243.1,86.6C1180.7,1940.9,1105.4,1946.2,1042.4,1943.2L1042.4,1943.2z"/>
</g>
<g id="layer1" inkscape:groupmode="layer" inkscape:label="Image 1">
	<path id="path2475" class="st2" d="M1037.7,2051.1c-121.1-5.8-218.3-26-322.7-67.5c-35.3-14-69.1-30.2-104.2-49.9
		c-54.6-30.8-119.8-77-165.4-117.5c-48.6-43.1-87.7-84-133.5-139.5c-44.7-54.3-91.3-130.7-122.3-200.4
		c-40.8-91.7-64.8-183.6-76-290.3c-7.8-74.4-7.7-141.8,0.6-218.9c9.8-91.4,30.5-175.4,62.9-255.2c25.1-61.7,50.3-109.4,87.7-165.4
		c21.6-32.5,31.1-45.3,52.9-71.5c31-37.3,41.8-49,74.9-82.1c61.3-61.6,105.9-97.7,175.3-142.4c72.2-46.5,154.1-83,245.6-109.3
		c49.6-14.3,109.7-24.7,181-31.2c30.7-2.8,139-2.8,169.6,0c111.5,10.2,183.8,27,280.4,65.1c55.4,21.9,112.7,52.1,164.3,86.9
		c19.4,13,49.9,34.6,58.9,41.7c59.2,46.1,126.8,113.1,176.9,175.4c4.9,6,9.4,11.6,10.3,12.4c2.5,2.5,19.4,25.6,31.5,43
		c79.1,114.3,131,245.5,152.5,385.5c9.6,62.8,14.7,137.2,12.5,184.7c-4.7,105.9-19.3,193.9-45.6,275.2
		c-16.9,52.5-31.2,87.7-53.4,131.9c-28.5,57.1-67.8,118.8-101.7,160c-56.3,68.4-87.7,101.3-142.6,149.2
		c-45,39.3-110.4,85-166.9,116.4c-81.6,45.3-180.3,80.5-273.5,97.5C1193.3,2048.5,1108.5,2054.4,1037.7,2051.1L1037.7,2051.1z
		 M1166.1,1344.9l265.2-265.3l-265.4-265.4c-146-146-265.5-265.4-265.8-265.4c-0.2,0-19.4,19.1-42.8,42.4L815,633.5l223.2,223.2
		l223.2,223.2l-222.9,222.9l-222.9,222.9l41.6,41.9c22.9,23.1,42,42,42.6,42.1C900.3,1610.1,1020.2,1490.8,1166.1,1344.9
		L1166.1,1344.9z"/>
</g>
</svg>
