<?xml version="1.0" encoding="utf-8"?>
<!-- Generator: Adobe Illustrator 23.1.0, SVG Export Plug-In . SVG Version: 6.00 Build 0)  -->
<svg version="1.1" id="图层_1" xmlns="http://www.w3.org/2000/svg" xmlns:xlink="http://www.w3.org/1999/xlink" x="0px" y="0px"
	 viewBox="0 0 276.2 66.1" style="enable-background:new 0 0 276.2 66.1;" xml:space="preserve">
<style type="text/css">
	.st0{fill:#BDA6EF;}
</style>
<path class="st0" d="M4.3,63.2c-2.9,0-4.3-1.1-4.3-3.4c0-2.3,1.4-3.4,4.3-3.4H34c0.5,0,0.9-0.3,1.1-0.7c2-5,3.8-10.2,5.3-15.4
	c1.8-6.1,3-10.5,3.5-13c0.6-2.8,2.1-4,4.6-3.4s3.4,2.3,2.6,5.1c-2.4,9.2-5.4,18.2-9,27.1c-0.1,0.2,0,0.4,0.2,0.4h17.4
	c2.9,0,4.3,1.1,4.3,3.4c0,2.3-1.4,3.4-4.3,3.4H4.3V63.2z M7.4,19.9c-2.9,0-4.3-1.1-4.3-3.4s1.4-3.4,4.3-3.4h49.5
	c2.9,0,4.3,1.1,4.3,3.4s-1.4,3.4-4.3,3.4H7.4z M22.5,53c-2.4,0.3-3.8-0.9-4.1-3.8c-1.1-6.9-2.7-13.6-4.7-20.3
	c-0.8-2.7-0.1-4.4,2.2-5.1c2.2-0.6,3.7,0.4,4.5,3.2c2.2,7,3.8,14.1,5,21.2C26,51,25,52.6,22.5,53z M33.2,11.7
	c-2.4,0.5-3.6,0.2-3.9-1c-0.4-1.8-0.9-3.5-1.5-5.1c-1-2.7-0.4-4.5,1.7-5.3s3.7,0.2,4.7,2.9C35,5,35.6,6.8,36.1,8.7
	C36.5,10.2,35.5,11.2,33.2,11.7z"/>
<path class="st0" d="M79.7,62.2c-2.5,0.9-4.4,0.4-5.7-1.7c-1.3-2.1-1.4-3.4-0.2-4c1.2-0.6,1.8-1.9,1.8-4V8c0-2.9,1.4-4.3,4.3-4.3
	h19.9c2.9,0,4.3,1.4,4.3,4.3v25.7c0,2.9-1.4,4.3-4.3,4.3h-17c-0.2,0-0.3,0.1-0.4,0.3v0.1v15.3c0,0.2,0.1,0.3,0.4,0.3l11.1-3.5
	c0.2,0,0.3-0.2,0.2-0.4l-1.5-2.6c-1.4-2.5-1.2-4.3,0.6-5.3c1.8-1.1,3.5-0.5,5,1.9c3.5,5.5,5.6,9.3,6.5,11.5c1,2.7,0.5,4.5-1.7,5.3
	c-2.2,0.9-3.8,0-4.9-2.7l-0.9-2.1c-0.1-0.2-0.3-0.3-0.6-0.2L79.7,62.2z M82.4,17.2c0,0.2,0.1,0.3,0.3,0.4h0.1h14.3
	c0.2,0,0.3-0.1,0.4-0.3v-0.1V10c0-0.2-0.1-0.3-0.3-0.4h-0.1H82.8c-0.2,0-0.3,0.1-0.4,0.3V10V17.2z M82.4,31.6c0,0.2,0.1,0.3,0.3,0.4
	h0.1h14.3c0.2,0,0.3-0.1,0.4-0.3v-0.1v-7.7c0-0.2-0.1-0.3-0.3-0.4h-0.1H82.8c-0.2,0-0.3,0.1-0.4,0.3v0.1V31.6z M113,66.1
	c-2.3,0-3.4-1.4-3.4-4.3V8.5c0-2.9,1.4-4.3,4.3-4.3h15.7c2.9,0,4.3,1.4,4.3,4.3v36.7c0.1,1.4-0.1,2.8-0.6,4.1
	c-0.4,1-1.1,1.8-2.1,2.2c-0.6,0.3-1.3,0.6-1.9,0.8c-1.5,0.1-3,0.2-4.5,0.2h-0.5c-2.9,0.1-4.3-0.9-4.4-3c0-2.1,1.4-3.1,4.3-3.1
	c1.2,0,2,0,2.4,0s0.6-0.4,0.6-1.3V10.6c0-0.2-0.1-0.3-0.3-0.4h-0.1h-10.4c-0.2,0-0.3,0.1-0.4,0.3v0.1v51.1
	C116.3,64.6,115.2,66.1,113,66.1z"/>
<path class="st0" d="M150.8,45.5c-2.6,1.4-4.4,1-5.4-1.1s-0.1-3.7,2.5-4.9c3.8-1.6,8-5.1,12.5-10.4c0.1-0.2,0.1-0.3-0.1-0.3h-12
	c-2.9,0-4.3-1-4.3-3s1.4-3,4.3-3h15.8c0.6,0,1.1-0.3,1.3-0.8l2.3-4.7c0.1-0.2,0-0.3-0.2-0.3L157,18c-2.7,0.2-4.3-0.7-4.8-2.8
	s0.5-3.7,2.9-4.8c2.5-1.3,5-2.7,7.3-4.4c2-1.3,3.9-2.8,5.8-4.3c2.1-2.1,3.8-2.3,5.3-0.7s1.1,3.4-1.2,5.3c-2.4,1.9-5,3.6-7.7,5
	c-0.2,0.1-0.2,0.2,0.1,0.2l23.6-0.8c0.2,0,0.3-0.1,0.1-0.2c-2.3-1.8-3.9-3-4.9-3.6c-0.9-0.6-0.9-1.7,0.1-3.3s2.7-1.6,5.2-0.1
	c2.6,1.7,5.2,3.5,7.6,5.5c2.3,1.7,4.6,3.6,6.7,5.7c0.8,1,0.4,2.2-1.2,3.7c-1.6,1.5-3.5,1.3-5.5-0.8l-0.8-0.8
	c-0.5-0.6-1.3-0.9-2.1-0.8l-17.3,0.7c-0.5,0-0.9,0.4-1.1,0.9c-0.6,1.7-1.4,3.4-2.3,5c-0.1,0.2-0.1,0.3,0.1,0.3h30.9
	c2.9,0,4.3,1,4.3,3s-1.4,3-4.3,3h-12.5c-0.2,0-0.3,0.1-0.1,0.3c2.5,2.6,5.3,5,8.3,7c2.2,1.6,4.5,2.9,6.9,4.1
	c1.3,0.5,1.5,1.8,0.7,3.9c-0.9,2.1-2.7,2.5-5.3,1.3c-3.1-1.7-6-3.8-8.6-6.2c-3.4-2.8-6.5-6-9.1-9.5c-0.4-0.6-1-0.9-1.7-0.9h-12.2
	c-0.7,0-1.3,0.3-1.7,0.9c-2.2,3.2-4.9,6.1-7.8,8.7c-0.2,0.1-0.2,0.2,0.1,0.1c3.3-0.8,6.6-1.8,9.8-3c2.1-0.7,4.2-1.5,6.3-2.4
	c2.4-1.5,4.1-1.5,5.1,0s0.3,3.1-2.1,4.8c-2.3,1.5-6.8,3.2-13.5,5c-2.5,0.6-4,0.6-4.4-0.1c-0.7-1-1.6-1.9-2.5-2.6
	c-0.2-0.2-0.5-0.2-0.7-0.1c0,0,0,0-0.1,0.1C156.1,42.2,153.5,44,150.8,45.5z M158.6,65.8c-2.9,0.3-4.4-0.5-4.6-2.6
	c-0.2-2.1,1.1-3.2,4-3.5c6.3-0.6,12.5-1.8,18.5-3.7c7.7-2.3,12.7-4.5,15-6.6c2.1-2,3.9-2.2,5.3-0.6c1.5,1.5,1.2,3.3-0.9,5.3
	C190.2,59.7,177.8,63.5,158.6,65.8L158.6,65.8z M163.8,53.9c-2.8,0.6-4.4,0-4.8-1.9c-0.3-1.9,0.9-3,3.7-3.5c3.3-0.7,6.5-1.6,9.7-2.7
	c5.4-1.8,8.8-3.1,10.2-4.1c2.4-1.7,4.1-1.8,5.2-0.3c1.1,1.5,0.5,3.2-1.8,4.9C182.4,48.9,175,51.5,163.8,53.9L163.8,53.9z"/>
<path class="st0" d="M220.6,48.9c-2.9,0-4.3-1.1-4.3-3.2c0-2.1,1.4-3.2,4.3-3.2h35.8c2.9,0,4.3,1.1,4.3,3.2c0,2.2-1.4,3.2-4.3,3.2
	H220.6z M251.5,65.1c-2.9-0.1-4.2-1.3-4.1-3.5c0.2-2.2,1.7-3.1,4.6-2.9c0.3,0,2.8,0.1,7.6,0.1c1.3,0.1,2.7-0.2,3.8-0.9
	c2.5-2,4.4-10.1,5.8-24.2c0-0.2-0.1-0.3-0.3-0.4h-0.1h-40.2c-3.1,0-4.3-1.5-3.5-4.5c2-7.7,3.7-15.6,4.9-23.5c0.5-2.8,1.8-4.1,4-3.7
	c2.3,0.4,3.1,2,2.6,4.8L236.2,9c0,0.2,0,0.4,0.3,0.4h34.3c2.9,0,4.3,1.1,4.3,3.2c0,2.2-1.4,3.2-4.3,3.2h-35.4
	c-0.4,0-0.7,0.2-0.7,0.6L232.5,27c0,0.2,0,0.4,0.3,0.4h39.3c3,0,4.3,1.5,4,4.4c-0.5,7-1.5,14-2.8,21c-1.1,4.8-2.5,8-4.1,9.6
	c-0.7,0.8-1.5,1.4-2.4,1.8c-0.6,0.2-1.2,0.4-1.7,0.6c-0.4,0.2-0.8,0.3-1.3,0.3c-1.4,0.1-2.9,0.2-4.2,0.3
	C256.9,65.4,254.2,65.4,251.5,65.1L251.5,65.1z"/>
</svg>
