<svg id="图层_1" data-name="图层 1" xmlns="http://www.w3.org/2000/svg" viewBox="0 0 204.58093 67.104"><path d="M222.2959,124.8501q-2.73706,2.592-4.39209.72021-1.65673-1.87134,1.22412-4.248.21606-.21608,3.312-4.85987a36.00366,36.00366,0,0,0,3.74414-6.51611q1.29566-3.52662,3.67188-2.5918,2.30346.936.86425,4.3916l-.50439,1.08008c-.09668.24072-.02441.36035.21631.36035h14.32764q3.7434,0,3.74414,2.01563,0,2.08959-3.74414,2.08838h-7.41553c-.24121,0-.313.09668-.21631.28759a30.94477,30.94477,0,0,1,2.41211,5.32813q.39477,1.51172-1.98,2.16016-2.4485.6482-3.312-3.02393-.145-.43214-2.16016-4.03223a1.41581,1.41581,0,0,0-1.2959-.71972h-2.23193a1.41529,1.41529,0,0,0-1.2959.71972A34.60475,34.60475,0,0,1,222.2959,124.8501ZM223.52,171.79492q-3.52881,1.3667-4.39209-1.08008-.86425-2.376,2.73584-3.60058A54.436,54.436,0,0,0,230,162.65039a55.0166,55.0166,0,0,0,10.51221-8.13574c.14355-.19141.09521-.28809-.14405-.28809h-14.688q-3.96095,0-3.0962-3.88769.64819-3.16846,1.22413-8.35254a3.64583,3.64583,0,0,1,4.03173-3.6001h16.77637a.318.318,0,0,0,.35986-.35986v-5.9043a.31859.31859,0,0,0-.35986-.35986H225.46387q-3.74415,0-3.74366-2.30371,0-2.231,3.74366-2.23243h45.144q3.74268,0,3.74414,3.74414v8.208q0,3.74487-3.74414,3.74463H250.5918a.31767.31767,0,0,0-.35987.35938v5.97656a.31728.31728,0,0,0,.35987.35937h22.248q3.88843,0,3.52832,3.81641A77.91973,77.91973,0,0,1,275,162.93848q-.86425,3.67236-1.54785,4.32031-.68555.64746-1.9082,1.94336-.28859.36035-3.312.54a56.79327,56.79327,0,0,1-6.04785.03613q-3.74487-.07178-3.6001-2.51953.14356-2.44776,1.44-2.30469,1.29637.14649,5.90429.14453a4.79836,4.79836,0,0,0,2.23194-.28808q.35887-.28712,1.584-1.584.28638-.2871,1.15186-8.63965.071-.36034-.28809-.36035H250.5918a.318.318,0,0,0-.35987.36035v14.47168q0,3.74268-2.59179,3.74414-2.66456,0-2.66407-3.74414V156.60254q0-.35889-.2163-.07227a60.4887,60.4887,0,0,1-10.94385,9.39649A53.80955,53.80955,0,0,1,223.52,171.79492Zm4.24805-22.53613c-.04834.24023.04736.35937.28808.35937h16.56006a.31786.31786,0,0,0,.35986-.35937v-5.97656a.31825.31825,0,0,0-.35986-.35938H229.27979a.52362.52362,0,0,0-.57569.50391Zm24.55175-25.12842q-2.592,2.73707-4.46386.936-1.87281-1.87134.86425-4.46387,3.09448-3.02417,5.32764-10.44043,1.08033-3.59911,3.52832-2.80762,2.51953.79248,1.22363,4.31983l-.35986,1.15185c-.09668.24072-.0249.36035.21582.36035h17.56836q3.74268,0,3.74365,2.01563,0,2.08959-3.74365,2.08838h-8.78418c-.24072,0-.28808.09668-.144.28759a25.48875,25.48875,0,0,1,3.41992,4.86036q.68335,1.54907-1.61963,2.55566-2.30566,1.00927-3.74414-2.44775a54.40437,54.40437,0,0,0-3.45605-4.46387,2.0467,2.0467,0,0,0-1.65577-.792H257.144a1.20366,1.20366,0,0,0-1.15185.71972A29.49431,29.49431,0,0,1,252.31982,124.13037Zm-2.08789,13.896a.31743.31743,0,0,0,.35987.35986h18.144a.31816.31816,0,0,0,.36035-.35986v-5.9043a.31874.31874,0,0,0-.36035-.35986h-18.144a.318.318,0,0,0-.35987.35986Z" transform="translate(-217.29895 -106.34619)"/><path d="M320,173.4502a32.85,32.85,0,0,1-16.91992-4.60743,33.56145,33.56145,0,0,1-12.02393-12.02441,33.36833,33.36833,0,0,1,0-33.83984,33.573,33.573,0,0,1,12.02393-12.02442,33.36833,33.36833,0,0,1,33.83984,0,33.57933,33.57933,0,0,1,12.02344,12.02442,33.49807,33.49807,0,0,1,0,33.9121,33.49309,33.49309,0,0,1-12.168,12.05958A32.67585,32.67585,0,0,1,320,173.4502Zm0-2.30372a30.71793,30.71793,0,0,0,15.76758-4.248A31.477,31.477,0,0,0,347,155.667a31.38917,31.38917,0,0,0,0-31.53662,31.48991,31.48991,0,0,0-11.23242-11.23193,30.78537,30.78537,0,0,0-15.80371-4.248A31.27827,31.27827,0,0,0,293,155.667a31.464,31.464,0,0,0,11.23193,11.23145A30.71585,30.71585,0,0,0,320,171.14648Zm-12.168-13.03222q-2.8081,0-2.8081-3.74414V127.94629a.31821.31821,0,0,0-.35987-.35986h-2.16015q-3.60132,0-3.74414-1.87207-.21534-1.87134,3.38427-2.59229a5.26326,5.26326,0,0,0,2.01612-.93555,8.0226,8.0226,0,0,1,4.31982-1.36816q2.15991,0,2.16016,3.74414v29.80762Q310.64014,158.11573,307.832,158.11426Zm21.3125.86426q-5.32909,0-8.49658-5.292-3.16918-5.29248-3.168-14.36425,0-9.07179,3.168-14.21973,3.16773-5.14746,8.49658-5.14844,5.32617,0,8.459,5.14844,3.13184,5.1482,3.13281,14.21973,0,9.07177-3.13281,14.36425Q334.47167,158.979,329.14453,158.97852Zm0-4.82422q2.73486,0,4.31934-3.59961,1.65527-3.8877,1.65625-11.23242,0-7.344-1.65625-11.08789-1.5835-3.52735-4.31934-3.52784-2.73778,0-4.32031,3.52784-1.65821,3.74414-1.65625,11.08789,0,7.34472,1.65625,11.23242Q326.40626,154.15528,329.14453,154.1543Z" transform="translate(-217.29895 -106.34619)"/><path d="M364.92773,172.73047q-2.73631,0-2.73632-3.74414V113.76221q0-3.74268,3.74414-3.74414h52.20117q3.74121,0,3.74316,3.74414v55.22412q0,3.74268-2.80761,3.74414-2.8799,0-2.88086-3.52832a.31713.31713,0,0,0-.35938-.35938H367.95215a.31743.31743,0,0,0-.36035.35938Q367.5918,172.72949,364.92773,172.73047Zm2.66407-9.28809a.31773.31773,0,0,0,.36035.36035H415.832a.31743.31743,0,0,0,.35938-.36035V115.70654a.318.318,0,0,0-.35938-.36035H367.95215a.31832.31832,0,0,0-.36035.36035ZM381.7041,152.499q-3.74561,0-3.74414-3.74414V130.25049q0-3.74342,3.74414-3.74414h20.30371q3.74415,0,3.74414,3.74414v18.50439q0,3.74415-3.74414,3.74414Zm1.36817-5.1123a.31713.31713,0,0,0,.35937.35937h16.70508a.3179.3179,0,0,0,.35937-.35937V131.69043a.31879.31879,0,0,0-.35937-.36035H383.43164a.318.318,0,0,0-.35937.36035Z" transform="translate(-217.29895 -106.34619)"/></svg>