<?xml version="1.0" encoding="utf-8"?>
<!-- Generator: Adobe Illustrator 23.1.0, SVG Export Plug-In . SVG Version: 6.00 Build 0)  -->
<svg version="1.1" id="图层_1" xmlns="http://www.w3.org/2000/svg" xmlns:xlink="http://www.w3.org/1999/xlink" x="0px" y="0px"
	 viewBox="0 0 565.1 66.2" style="enable-background:new 0 0 565.1 66.2;" xml:space="preserve">
<style type="text/css">
	.st0{fill:#CEBEAD;}
</style>
<g>
	<path class="st0" d="M28.9,66.2c-2.4,0-3.5-1.4-3.5-4.3V43.7c0-0.2-0.1-0.3-0.3-0.4c0,0-0.1,0-0.1,0H7.1c-0.2,0-0.3,0.1-0.4,0.3
		c0,0,0,0.1,0,0.1c0,2.6-1.1,3.9-3.3,3.9c-2.3,0-3.4-1.4-3.4-4.3V17.1c0-2.9,1.4-4.3,4.3-4.3H25c0.2,0,0.3-0.1,0.4-0.3
		c0,0,0-0.1,0-0.1V4.6c0-2.9,1.2-4.3,3.5-4.3c2.3,0,3.5,1.4,3.5,4.3v7.8c0,0.2,0.1,0.3,0.3,0.4c0,0,0.1,0,0.1,0h21
		c2.9,0,4.3,1.4,4.3,4.3v25.8c0,2.9-1.2,4.3-3.5,4.3c-2.4,0-3.5-1.2-3.5-3.5c0-0.2-0.1-0.3-0.3-0.4c0,0-0.1,0-0.1,0h-18
		c-0.2,0-0.3,0.1-0.4,0.3c0,0,0,0.1,0,0.1v18.2C32.3,64.8,31.2,66.2,28.9,66.2z M6.7,36.4c0,0.2,0.1,0.3,0.3,0.4c0,0,0.1,0,0.1,0H25
		c0.2,0,0.3-0.1,0.4-0.3c0,0,0-0.1,0-0.1V19.7c0-0.2-0.1-0.3-0.3-0.4c0,0-0.1,0-0.1,0H7.1c-0.2,0-0.3,0.1-0.4,0.3c0,0,0,0.1,0,0.1
		L6.7,36.4z M32.3,36.4c0,0.2,0.1,0.3,0.3,0.4c0,0,0.1,0,0.1,0h18c0.2,0,0.3-0.1,0.4-0.3c0,0,0-0.1,0-0.1V19.7
		c0-0.2-0.1-0.3-0.3-0.4c0,0-0.1,0-0.1,0h-18c-0.2,0-0.3,0.1-0.4,0.3c0,0,0,0.1,0,0.1V36.4z"/>
	<path class="st0" d="M75,65.2c-2.8,0.9-4.5,0.1-5.2-2.2c-0.7-2.4,0.4-3.9,3.2-4.7c8.5-2.3,16.3-6.5,23-12.2
		c0.2-0.1,0.2-0.3,0.1-0.4c0,0,0,0-0.1-0.1c-6.9-7.5-12.3-16.3-15.8-25.9c-0.2-0.5-0.6-0.8-1.1-0.7h-6c-2.9,0-4.3-1.1-4.3-3.2
		c0-2.2,1.4-3.2,4.3-3.2h56c2.9,0,4.3,1.1,4.3,3.2c0,2.2-1.4,3.2-4.3,3.2H123c-0.4,0-0.8,0.3-0.9,0.7c-3.3,9.6-8.5,18.4-15.5,25.8
		c-0.1,0.1-0.1,0.3,0,0.4c0,0,0,0,0.1,0.1c7.7,6.3,15.1,10.3,22.2,12.1c2.8,0.7,3.9,2.2,3.3,4.5c-0.6,2.3-2.3,3.1-5.1,2.3
		c-9.5-2.6-18.2-7.3-25.5-13.8c-0.2-0.2-0.6-0.2-0.9,0c0,0,0,0,0,0C93.2,57.5,84.4,62.3,75,65.2z M101.1,41c0.1,0.2,0.3,0.2,0.4,0
		c5.9-6.2,10.4-13.5,13.2-21.6c0.1-0.2,0-0.4-0.2-0.4H87.3C87,19,87,19.2,87,19.4C90.3,27.4,95.1,34.8,101.1,41L101.1,41z
		 M103.8,11.7c-2.5,0.8-4.2-0.2-5-3c-0.3-0.9-0.7-1.7-1.2-2.5c-1.4-2.5-1.1-4.3,0.9-5.5c2.1-1.2,3.8-0.6,5.3,1.8
		c0.9,1.3,1.6,2.6,2.3,4C107.1,9.2,106.3,10.9,103.8,11.7L103.8,11.7z"/>
	<path class="st0" d="M168.2,65.7c-2.9,0-4.3-1.1-4.3-3.4c0-2.3,1.4-3.4,4.3-3.4h1.2c1.4,0,2.2,0,2.5,0c0.3,0,0.5-0.1,0.8-0.3
		c0.2-0.3,0.4-0.6,0.3-1V37c0-0.2-0.1-0.3-0.3-0.4c0,0-0.1,0-0.1,0h-15c-2.3,0.1-4.6,0-6.8-0.1c0.1-0.1,0-0.4-0.3-0.9l-0.4-0.8
		c-1.6-2.7-2.2-4.1-2-4.1c0.4-0.2,0.8-0.5,1.1-0.8c0.5-0.5,1.1-1.2,2-2.3l1.7-2.2c2.2-2.9,4.2-6,5.9-9.1c0.1-0.2,0-0.3-0.2-0.3
		h-11.4c-2.9,0-4.3-1.1-4.3-3.2c0-2.1,1.4-3.2,4.3-3.2h14.3c0.6,0,1.1-0.3,1.4-0.8c1.3-2.4,2.1-4.1,2.5-5c1.1-2.7,2.8-3.5,5.2-2.4
		c2.4,1.1,2.9,2.9,1.6,5.5l-1.2,2.5c-0.1,0.2,0,0.3,0.2,0.3h27.7c2.9,0,4.3,1.1,4.3,3.2c0,2.2-1.4,3.2-4.3,3.2H168
		c-0.6,0-1.2,0.3-1.4,0.9c-2.6,4.5-5.5,8.9-8.6,13c-0.1,0.2-0.1,0.3,0.1,0.3h14.5c0.2,0,0.3-0.1,0.4-0.3c0,0,0-0.1,0-0.1v-5.1
		c0-2.9,1.1-4.3,3.4-4.3c2.3,0,3.4,1.4,3.4,4.3v5.1c0,0.2,0.1,0.3,0.3,0.4c0,0,0.1,0,0.1,0h15.5c2.9,0,4.3,1.1,4.3,3.2
		c0,2.2-1.4,3.2-4.3,3.2h-15.5c-0.2,0-0.3,0.1-0.4,0.3c0,0,0,0.1,0,0.1v20.7c0.1,1.5-0.2,3-0.7,4.4c-0.3,0.8-0.9,1.5-1.7,1.9
		c-0.6,0.3-1.6,0.7-2.9,1.3C174,65.6,171.9,65.7,168.2,65.7z M150.5,61.1c-2.1,2-3.9,2.1-5.5,0.4c-1.5-1.7-1.8-3.1-0.6-4
		c1.9-1.9,3.6-3.9,5.1-6.1c1.5-1.9,2.9-3.9,4-6c1.1-2.6,2.6-3.5,4.8-2.7c2.1,0.9,2.6,2.7,1.4,5.3c-1.3,2.3-2.8,4.5-4.3,6.6
		C153.9,56.9,152.3,59,150.5,61.1z M202,61c-2,1.1-3.3,1.1-4-0.1c-1.6-2.5-3.3-4.9-5.1-7.1c-2.6-3.3-4.1-5.1-4.5-5.5
		c-2-2.1-2.2-3.8-0.8-5.2c1.4-1.4,3.1-1.1,5.1,0.9c1.3,1.3,3.3,3.5,5.9,6.6c1.9,2.2,3.7,4.5,5.4,7C204.6,58.8,203.9,59.9,202,61
		L202,61z"/>
	<path class="st0" d="M220.4,64.9c-2.5,1.4-4.4,1-5.5-1.1c-1.1-2.1-0.4-3.8,2.2-5.1c2.4-1.2,5.2-4.3,8.4-9.1
		c2.8-4.6,4.7-9.6,5.6-14.9c0.9-5.2,1.4-10.4,1.6-15.6c0-0.2-0.1-0.3-0.3-0.4c0,0-0.1,0-0.1,0h-14.2c-2.9,0-4.3-1.1-4.3-3.3
		c0-2.2,1.4-3.2,4.3-3.2h54.1c2.9,0,4.3,1.1,4.3,3.2c0,2.2-1.4,3.3-4.3,3.3l-31.7,0.1c-0.3,0-0.5,0.2-0.5,0.4c0,0,0,0,0,0l-0.8,9.3
		c0,0.2,0.1,0.3,0.3,0.4c0,0,0.1,0,0.1,0h25.8c2.9,0,4.3,1.5,4.1,4.4c-0.7,9.1-1.4,15.9-2.2,20.4c-0.8,4.5-1.4,6.9-1.9,7.4
		c-1,1-1.7,1.8-2.2,2.2c-0.7,0.6-1.5,1.1-2.3,1.4c-1.2,0.4-2.5,0.7-3.8,0.8c-3.1,0.2-6.1,0.3-9.2,0.1c-2.9-0.2-4.2-1.3-4.1-3.5
		c0.1-2.1,1-3.1,2.5-3c1.5,0.1,4.3,0.2,8.3,0.2c1,0.1,2,0,2.9-0.4c0.4-0.3,0.8-0.6,1.3-1.1c0.5-0.4,1.1-2.4,1.8-6
		c0.9-5.3,1.5-10.7,1.9-16c0-0.2-0.1-0.3-0.3-0.4c0,0-0.1,0-0.1,0h-23.3c-0.3,0-0.6,0.2-0.6,0.5c0,0,0,0,0,0.1
		c-1,6-3.2,11.7-6.3,16.9C228.3,58.6,224.5,62.6,220.4,64.9z M248.3,11.5c-2.4,0.8-4-0.2-4.8-3c-0.3-0.8-0.7-1.6-1.1-2.3
		c-1.4-2.5-1.1-4.3,0.9-5.4c2-1.2,3.7-0.5,5.2,2c1,1.7,1.9,3.5,2.6,5.3C251.5,9.5,250.6,10.7,248.3,11.5L248.3,11.5z"/>
	<path class="st0" d="M292.3,64.5c-2.5,1.4-4.4,1.1-5.5-1.1c-1.2-2.2-0.4-3.9,2.2-5.3c5.2-2.7,10.2-8.1,15-16.3
		c3.8-6.9,6.4-14.4,7.6-22.2c0.9-5.9,1.3-11.8,1.3-17.7c0-1,1.3-1.5,3.8-1.4c2.5,0,3.7,1.5,3.6,4.5L320,9.2c0,1.3,0,2.6,0.1,3.9
		c0.8,7.5,2.9,14.8,6,21.7c5.4,12,11.9,19.7,19.4,23c2.6,1.2,3.5,2.9,2.4,5c-1,2.2-2.8,2.7-5.4,1.4c-11.7-5.5-20.2-17.2-25.5-34.9
		c0-0.2-0.1-0.2-0.1,0C312.4,46.2,304.2,57.9,292.3,64.5z"/>
	<path class="st0" d="M363.5,27.5c-2.1,2.1-3.9,2.2-5.5,0.5c-1.6-1.7-1.3-3.5,0.9-5.4c0.8-0.7,2.6-3.3,5.4-7.9
		c2.2-3.4,4.1-7,5.6-10.7c0.9-2.7,2.4-3.7,4.6-3c2.2,0.8,2.7,2.6,1.6,5.3l-0.4,1.2c-0.1,0.2,0,0.4,0.2,0.4h39.5
		c2.9,0,4.3,0.9,4.3,2.8c0,1.9-1.4,2.9-4.3,2.9h-41.7c-0.6,0-1.1,0.3-1.4,0.8C368.9,20.5,366,24.9,363.5,27.5z M415.5,66.2
		c-4.6,0-8-3.1-10.2-9.3c-1.7-4.9-2.8-12.4-3.2-22.4c0-0.2-0.1-0.4-0.3-0.4c0,0-0.1,0-0.1,0h-33.1c-2.9,0-4.3-1-4.3-2.9
		c0-1.9,1.4-2.9,4.3-2.9h35.8c2.9,0,4.3,1.4,4.4,4.3c0.1,5.8,0.6,11.6,1.7,17.4c1.3,6.4,3.1,9.6,5.5,9.6c1.1,0,1.6-1.1,1.7-3.2
		c0-2.9,0.8-4.3,2.4-4.2c1.6,0,2.3,1.5,2.2,4.4c0,2.4-0.6,4.7-1.6,6.8C419.6,65.2,417.6,66.3,415.5,66.2z M376.1,23.4
		c-2.9,0-4.3-0.9-4.3-2.7c0-1.8,1.4-2.7,4.3-2.7h33.6c2.9,0,4.3,0.9,4.3,2.7c0,1.8-1.4,2.7-4.3,2.7H376.1z"/>
	<path class="st0" d="M434.6,65.7c-2.9,0-4.3-1-4.3-3c0-2,1.4-3,4.3-3c1.2,0,2,0,2.4,0c0.5,0,0.7-0.5,0.7-1.4V41.7
		c0-0.2-0.1-0.3-0.4-0.3l-3.8,1.1c-2.8,0.8-4.5,0.1-5-2.1c-0.6-2.1,0.6-3.5,3.4-4.2l5.2-1.3c0.4,0,0.7-0.4,0.6-0.8V20.8
		c0-0.2-0.1-0.3-0.3-0.4c0,0-0.1,0-0.1,0h-4.5c-2.9,0-4.3-1-4.3-3.1c0-2.1,1.4-3.1,4.3-3.1h4.5c0.2,0,0.3-0.1,0.4-0.3
		c0,0,0-0.1,0-0.1V4.6c0-2.9,1.1-4.3,3.2-4.3c2.2,0,3.2,1.4,3.2,4.3v9.4c0,0.2,0.1,0.3,0.3,0.4c0,0,0.1,0,0.1,0h3.7
		c2.9,0,4.3,1,4.3,3.1c0,2.1-1.4,3.1-4.3,3.1h-3.7c-0.2,0-0.3,0.1-0.4,0.3c0,0,0,0.1,0,0.1v11.8c0,0.2,0.1,0.3,0.4,0.3l1.2-0.4
		c2.8-0.8,4.4-0.2,5,1.8c0.6,2-0.5,3.4-3.3,4.2l-2.6,0.7c-0.4,0.1-0.7,0.5-0.6,0.9v18.2c0.1,1.4-0.1,2.7-0.6,4
		c-0.2,0.7-0.7,1.4-1.4,1.8c-0.5,0.2-1.4,0.7-2.7,1.3C439.2,65.6,437.6,65.7,434.6,65.7z M453.5,65.5c-2.8,0.7-4.5,0-5-2.2
		c-0.5-2.2,0.7-3.6,3.6-4.1c3.4-0.7,7.6-2.5,12.6-5.4c0.2-0.1,0.2-0.3,0-0.4c-4.2-4-7.2-7.7-8.8-11.1c-1.3-2.7-1.4-4.2-0.4-4.5
		c0.2-0.1,0.2-0.1,0-0.1c-2.2,0-3.2-1-3.2-3.1c0-2.1,1.4-3.2,4.3-3.2l25.8-0.2c1.7,0,3.3,0.3,4.9,0.9c1.4,0.6,1.8,2.3,0.9,5
		c-1.7,5.5-5.6,11-11.7,16.4c-0.2,0.1-0.2,0.3,0,0.4c5,2.9,9,4.7,11.9,5.3c2.8,0.5,4,1.9,3.5,4.2c-0.5,2.3-2.1,3-5,2.4
		c-5.7-1.4-11-3.9-15.8-7.3c-0.4-0.3-0.9-0.3-1.3,0C464.8,61.7,459.3,64.1,453.5,65.5z M457,28.4c-2.5,1.3-4.3,1.1-5.3-0.8
		c-1-1.9-0.2-3.5,2.4-4.8c1-0.7,1.7-1.6,2.2-2.7c0.7-1.2,1.3-2.5,2-3.7c0.4-0.8,0.6-2.8,0.6-5.8V7c0-2.9,1.4-4.3,4.3-4.3h15
		c2.9,0,4.3,1.4,4.4,4.3l0.1,12.2c0,0.7,0,1.4,0.1,2.1c0.1,0.2,0.3,0.4,0.6,0.3c0.3,0,1.1,0,2.5-0.1l1.9-0.1
		c2.6-0.1,4.2,0.7,4.8,2.4c0.5,1.8-0.7,2.8-3.8,3l-3.4,0.2c-1.5,0.1-3,0.1-4.5,0.1c-1.4,0-2.7-0.7-3.5-1.9c-1-1.2-1.4-3.5-1.4-6.6
		V9.2c0-0.2-0.1-0.3-0.3-0.4c0,0-0.1,0-0.1,0h-10.4c-0.2,0-0.3,0.1-0.4,0.3c0,0,0,0.1,0,0.1v1.4C465.1,19.7,462.4,25.6,457,28.4z
		 M470.2,49.5c0.2,0.2,0.6,0.2,0.9,0c0,0,0,0,0,0c3.9-3.2,7-7.1,9.4-11.5c0.1-0.2,0-0.3-0.2-0.3h-19.3c-0.2,0-0.3,0.1-0.2,0.3
		C463,42.4,466.2,46.3,470.2,49.5z"/>
	<path class="st0" d="M525.4,66.2c-2.4,0-3.7-0.9-3.7-2.9c0-2,1.4-2.9,4.3-2.9h0.4c1.3,0,2.1,0,2.4,0c0.5,0,0.9-0.4,0.9-0.9
		c0-0.1,0-0.2,0-0.2V48.8c0-0.2-0.1-0.3-0.3-0.4c0,0-0.1,0-0.1,0h-24c-2.9,0-4.3-0.9-4.3-2.7c0-1.8,1.4-2.7,4.3-2.7h55.4
		c2.9,0,4.3,0.9,4.3,2.7c0,1.8-1.4,2.7-4.3,2.7h-24c-0.2,0-0.3,0.1-0.4,0.3c0,0,0,0.1,0,0.1v10.7c0.1,1.3-0.1,2.6-0.6,3.8
		c-0.5,0.9-1.3,1.6-2.3,1.9c-0.7,0.3-1.5,0.6-2.2,0.7c-1.5,0.1-3,0.2-4.5,0.2L525.4,66.2z M510.5,29.9c-2.9,0-4.3-1.4-4.3-4.3v-8.3
		c0-2.9,1.4-4.3,4.3-4.3h10.8c0.2,0,0.3-0.1,0.4-0.3c0,0,0-0.1,0-0.1v-4c0-0.2-0.1-0.3-0.3-0.4c0,0-0.1,0-0.1,0h-15
		c-2.9,0-4.3-0.9-4.3-2.7c0-1.8,1.4-2.7,4.3-2.7h53.1c2.9,0,4.3,0.9,4.3,2.7c0,1.8-1.4,2.7-4.3,2.7h-15.3c-0.2,0-0.3,0.1-0.4,0.3
		c0,0,0,0.1,0,0.1v4c0,0.2,0.1,0.3,0.3,0.4c0,0,0.1,0,0.1,0h11.7c2.9,0,4.3,1.4,4.3,4.3v8.3c0,2.9-1.4,4.3-4.3,4.3H510.5z
		 M508.8,63.1c-2.9,1.9-4.2,1.1-4-2.4c0.1-1.2,1.5-2.7,4.3-4.7c1.7-1.1,3.3-2.3,4.8-3.7c1.8-2.3,3.5-2.8,5.1-1.5
		c1.6,1.3,2.1,2.4,1.3,3.4c-1.2,1.4-2.6,2.7-4.1,3.8c-1.2,1-2.4,1.8-3.7,2.7L508.8,63.1z M514,39c-2.9,0-4.3-0.9-4.3-2.7
		c0-1.7,1.4-2.6,4.3-2.6h38.2c2.9,0,4.3,0.9,4.3,2.6c0,1.8-1.4,2.7-4.3,2.7H514z M512.4,24.5c0,0.2,0.1,0.3,0.3,0.4c0,0,0.1,0,0.1,0
		h8.5c0.2,0,0.3-0.1,0.4-0.3c0,0,0-0.1,0-0.1v-6.2c0-0.2-0.1-0.3-0.3-0.4c0,0-0.1,0-0.1,0h-8.5c-0.2,0-0.3,0.1-0.4,0.3
		c0,0,0,0.1,0,0.1V24.5z M527.8,12.6c0,0.2,0.1,0.3,0.3,0.4c0,0,0.1,0,0.1,0h8.9c0.2,0,0.3-0.1,0.4-0.3c0,0,0-0.1,0-0.1v-4
		c0-0.2-0.1-0.3-0.3-0.4c0,0-0.1,0-0.1,0h-8.9c-0.2,0-0.3,0.1-0.4,0.3c0,0,0,0.1,0,0.1V12.6z M527.8,24.5c0,0.2,0.1,0.3,0.3,0.4
		c0,0,0.1,0,0.1,0h8.9c0.2,0,0.3-0.1,0.4-0.3c0,0,0-0.1,0-0.1v-6.2c0-0.2-0.1-0.3-0.3-0.4c0,0-0.1,0-0.1,0h-8.9
		c-0.2,0-0.3,0.1-0.4,0.3c0,0,0,0.1,0,0.1V24.5z M543.8,24.5c0,0.2,0.1,0.3,0.3,0.4c0,0,0.1,0,0.1,0h9c0.2,0,0.3-0.1,0.4-0.3
		c0,0,0-0.1,0-0.1v-6.2c0-0.2-0.1-0.3-0.3-0.4c0,0-0.1,0-0.1,0h-9c-0.2,0-0.3,0.1-0.4,0.3c0,0,0,0.1,0,0.1V24.5z M562,62.8
		c-1.4,1.6-2.7,2-3.6,1c-2-1.7-4.1-3.3-6.4-4.8c-3.1-2.1-5.2-3.5-6.3-4.1c-1.1-0.6-1.2-1.7-0.4-3.3c0.9-1.6,2.6-1.7,5.1-0.4
		c5.3,2.8,8.8,4.9,10.4,6.3C562.9,59.5,563.4,61.2,562,62.8z"/>
</g>
</svg>
