<?xml version="1.0" encoding="utf-8"?>
<!-- Generator: Adobe Illustrator 23.1.0, SVG Export Plug-In . SVG Version: 6.00 Build 0)  -->
<svg version="1.1" id="图层_1" xmlns="http://www.w3.org/2000/svg" xmlns:xlink="http://www.w3.org/1999/xlink" x="0px" y="0px"
	 viewBox="0 0 204.6 67.1" style="enable-background:new 0 0 204.6 67.1;" xml:space="preserve">
<path d="M5,18.5c-1.8,1.7-3.3,2-4.4,0.7C-0.5,18-0.1,16.6,1.8,15c0.1-0.1,1.2-1.8,3.3-4.9c1.5-2,2.7-4.2,3.7-6.5
	C9.7,1.2,11,0.4,12.6,1c1.5,0.6,1.8,2.1,0.9,4.4l-0.5,1.1c-0.1,0.2,0,0.4,0.2,0.4h14.3c2.5,0,3.7,0.7,3.7,2c0,1.4-1.2,2.1-3.7,2.1
	H20c-0.2,0-0.3,0.1-0.2,0.3c1,1.7,1.8,3.5,2.4,5.3c0.3,1-0.4,1.7-2,2.2c-1.6,0.4-2.7-0.6-3.3-3c-0.1-0.3-0.8-1.6-2.2-4
	c-0.3-0.5-0.8-0.7-1.3-0.7h-2.2c-0.5,0-1,0.3-1.3,0.7C8.6,14.1,6.9,16.4,5,18.5z M6.2,65.4c-2.4,0.9-3.8,0.6-4.4-1.1
	c-0.6-1.6,0.3-2.8,2.7-3.6c2.8-1.3,5.6-2.7,8.1-4.5c3.8-2.3,7.3-5,10.5-8.1c0.1-0.2,0.1-0.3-0.1-0.3H8.4c-2.6,0-3.7-1.3-3.1-3.9
	c0.4-2.1,0.8-4.9,1.2-8.4c0-2,1.7-3.6,3.7-3.6c0.1,0,0.2,0,0.4,0h16.8c0.2,0,0.3-0.1,0.4-0.3c0,0,0-0.1,0-0.1v-5.9
	c0-0.2-0.1-0.3-0.3-0.4c0,0-0.1,0-0.1,0H8.2c-2.5,0-3.7-0.8-3.7-2.3c0-1.5,1.2-2.2,3.7-2.2h45.1c2.5,0,3.7,1.2,3.7,3.7v8.2
	c0,2.5-1.2,3.7-3.7,3.7h-20c-0.2,0-0.3,0.1-0.4,0.3c0,0,0,0.1,0,0.1v6c0,0.2,0.1,0.3,0.3,0.4c0,0,0.1,0,0.1,0h22.2
	c2.6,0,3.8,1.3,3.5,3.8c-0.3,3.2-0.7,6.4-1.4,9.5c-0.6,2.4-1.1,3.9-1.5,4.3c-0.5,0.4-1.1,1.1-1.9,1.9c-0.2,0.2-1.3,0.4-3.3,0.5
	c-2,0.1-4,0.1-6,0c-2.5,0-3.7-0.9-3.6-2.5c0.1-1.6,0.6-2.4,1.4-2.3c0.9,0.1,2.8,0.1,5.9,0.1c0.8,0.1,1.5,0,2.2-0.3
	c0.2-0.2,0.8-0.7,1.6-1.6c0.2-0.2,0.6-3.1,1.2-8.6c0-0.2,0-0.4-0.3-0.4h-20c-0.2,0-0.3,0.1-0.4,0.3c0,0,0,0.1,0,0.1v14.5
	c0,2.5-0.9,3.7-2.6,3.7c-1.8,0-2.7-1.2-2.7-3.7V50.3c0-0.2-0.1-0.3-0.2-0.1c-3.3,3.6-6.9,6.7-10.9,9.4C13.3,61.9,9.9,63.9,6.2,65.4z
	 M10.5,42.9c0,0.2,0,0.4,0.3,0.4h16.6c0.2,0,0.3-0.1,0.4-0.3c0,0,0-0.1,0-0.1v-6c0-0.2-0.1-0.3-0.3-0.4c0,0-0.1,0-0.1,0H12
	c-0.3,0-0.5,0.2-0.6,0.5c0,0,0,0,0,0L10.5,42.9z M35,17.8c-1.7,1.8-3.2,2.1-4.5,0.9c-1.2-1.2-1-2.7,0.9-4.5c2.1-2,3.8-5.5,5.3-10.4
	c0.7-2.4,1.9-3.3,3.5-2.8c1.7,0.5,2.1,2,1.2,4.3l-0.4,1.2c-0.1,0.2,0,0.4,0.2,0.4h17.6c2.5,0,3.7,0.7,3.7,2c0,1.4-1.2,2.1-3.7,2.1
	h-8.8c-0.2,0-0.3,0.1-0.1,0.3c1.3,1.5,2.5,3.1,3.4,4.9c0.5,1-0.1,1.9-1.6,2.6c-1.5,0.7-2.8-0.1-3.7-2.4c-1.1-1.5-2.2-3-3.5-4.5
	c-0.4-0.5-1-0.8-1.7-0.8h-3.1c-0.5,0-1,0.3-1.2,0.7C37.7,13.8,36.5,15.9,35,17.8L35,17.8z M32.9,31.7c0,0.2,0.1,0.3,0.3,0.4
	c0,0,0.1,0,0.1,0h18.1c0.2,0,0.3-0.1,0.4-0.3c0,0,0-0.1,0-0.1v-5.9c0-0.2-0.1-0.3-0.3-0.4c0,0-0.1,0-0.1,0H33.3
	c-0.2,0-0.3,0.1-0.4,0.3c0,0,0,0.1,0,0.1L32.9,31.7z"/>
<path d="M89.6,56.7c-2.4,0-3.5-1.6-3.5-4.7V18.6c0-0.2-0.1-0.4-0.3-0.5c0,0-0.1,0-0.1,0h-2.7c-3,0-4.6-0.8-4.7-2.4
	c-0.2-1.6,1.2-2.7,4.3-3.3c0.9-0.2,1.8-0.6,2.5-1.2c1.6-1.1,3.5-1.7,5.4-1.7c1.8,0,2.7,1.6,2.7,4.7V52
	C93.1,55.1,91.9,56.7,89.6,56.7L89.6,56.7z M117.3,56.7c-2.4,0-3.5-1.6-3.5-4.7V18.7c0-0.2-0.1-0.4-0.3-0.5c0,0-0.1,0-0.1,0h-2.7
	c-3,0-4.6-0.8-4.7-2.4c-0.2-1.6,1.2-2.7,4.3-3.3c0.9-0.2,1.8-0.6,2.5-1.2c1.6-1.1,3.5-1.7,5.4-1.7c1.8,0,2.7,1.6,2.7,4.7V52
	C120.8,55.2,119.7,56.8,117.3,56.7L117.3,56.7z"/>
<path d="M147.6,66.4c-1.8,0-2.7-1.2-2.7-3.7V7.4c0-2.5,1.2-3.7,3.7-3.7h52.2c2.5,0,3.7,1.2,3.7,3.7v55.2c0,2.5-0.9,3.7-2.8,3.7
	c-1.9,0-2.9-1.2-2.9-3.5c0-0.2-0.1-0.3-0.3-0.4c0,0-0.1,0-0.1,0h-47.9c-0.2,0-0.3,0.1-0.4,0.3c0,0,0,0.1,0,0.1
	C150.3,65.2,149.4,66.4,147.6,66.4z M150.3,57.1c0,0.2,0.1,0.3,0.3,0.4c0,0,0.1,0,0.1,0h47.9c0.2,0,0.3-0.1,0.4-0.3c0,0,0-0.1,0-0.1
	V9.4c0-0.2-0.1-0.3-0.3-0.4c0,0-0.1,0-0.1,0h-47.9c-0.2,0-0.3,0.1-0.4,0.3c0,0,0,0.1,0,0.1V57.1z M164.4,46.2
	c-2.5,0-3.7-1.2-3.7-3.7V23.9c0-2.5,1.2-3.7,3.7-3.7h20.3c2.5,0,3.7,1.2,3.7,3.7v18.5c0,2.5-1.2,3.7-3.7,3.7L164.4,46.2z M165.8,41
	c0,0.2,0.1,0.3,0.3,0.4c0,0,0.1,0,0.1,0h16.7c0.2,0,0.3-0.1,0.4-0.3c0,0,0-0.1,0-0.1V25.3c0-0.2-0.1-0.3-0.3-0.4c0,0-0.1,0-0.1,0
	h-16.7c-0.2,0-0.3,0.1-0.4,0.3c0,0,0,0.1,0,0.1V41z"/>
</svg>
