<svg id="图层_1" data-name="图层 1" xmlns="http://www.w3.org/2000/svg" viewBox="0 0 276.15824 66.06418"><defs><style>.cls-1{fill:#db4437;}</style></defs><path class="cls-1" d="M8.7996,67.70915q-4.31983,0-4.31983-3.38379,0-3.38234,4.31983-3.38379H38.53592a1.06868,1.06868,0,0,0,1.08008-.71973,152.4476,152.4476,0,0,0,5.32764-15.4082Q47.67924,35.5983,48.472,31.78141q.86352-4.24731,4.60791-3.38379,3.74268.93677,2.5918,5.11182a226.50479,226.50479,0,0,1-9,27.07275c-.09668.24024-.02442.35938.21631.35938H64.3118q4.31983,0,4.31983,3.38379T64.3118,67.70915Zm3.09619-43.27149q-4.31982,0-4.31983-3.38428,0-3.38305,4.31983-3.38378H61.35966q4.32056,0,4.32031,3.38378,0,3.38526-4.32031,3.38428ZM27.01591,57.48551q-3.60132.50538-4.104-3.81543A159.02076,159.02076,0,0,0,18.23173,33.3654q-1.22535-4.10376,2.16015-5.11182,3.31054-.93531,4.53613,3.168a158.75353,158.75353,0,0,1,5.04,21.23974Q30.68657,56.98258,27.01591,57.48551ZM37.67167,16.22965q-3.52807.79322-3.852-1.04394A36.11205,36.11205,0,0,0,32.344,10.03776q-1.44141-4.1045,1.72754-5.25635,3.16773-1.15064,4.68018,2.87988a56.38693,56.38693,0,0,1,1.87207,5.58008Q41.19949,15.43865,37.67167,16.22965Z" transform="translate(-4.47977 -4.52582)"/><path class="cls-1" d="M84.18387,66.7736q-3.81738,1.3667-5.688-1.65625-1.94385-3.09375-.18018-3.99512,1.76367-.89941,1.76416-3.99609V12.48551q0-4.31982,4.31982-4.31982H104.344q4.31982,0,4.31982,4.31982v25.7041q0,4.31983-4.31982,4.31983H87.27958a.318.318,0,0,0-.35987.35986V58.20622c0,.24023.11914.33593.35987.28711L98.368,55.03825q.35887-.07177.21582-.36035l-1.51221-2.5918Q94.9827,48.34342,97.72,46.758q2.73486-1.65526,4.96777,1.94336,5.18409,8.209,6.48,11.52051,1.51171,4.03272-1.65576,5.32813-3.24024,1.29637-4.896-2.66407L101.68,60.798c-.09668-.24023-.28809-.31152-.57617-.21582Zm2.73584-45a.31743.31743,0,0,0,.35987.35986H101.6077a.31816.31816,0,0,0,.36035-.35986v-7.272a.31855.31855,0,0,0-.36035-.35987H87.27958a.31782.31782,0,0,0-.35987.35987Zm0,14.3999a.31743.31743,0,0,0,.35987.35986H101.6077a.31816.31816,0,0,0,.36035-.35986V28.4694a.31874.31874,0,0,0-.36035-.35986H87.27958a.318.318,0,0,0-.35987.35986ZM117.448,70.59q-3.38525,0-3.38427-4.32032V12.98942q0-4.31982,4.31982-4.31982h15.6958q4.32129,0,4.32031,4.31982v36.7207a11.52666,11.52666,0,0,1-.57617,4.06739,4.12186,4.12186,0,0,1-2.08789,2.23242,9.91709,9.91709,0,0,1-1.94336.82812q-2.23389.145-4.46435.21582H128.824q-4.32055.145-4.39209-3.02441,0-3.167,4.31983-3.0957,1.79955,0,2.44775-.03614.64893-.03515.64844-1.25976V15.14958a.31836.31836,0,0,0-.36035-.35987H121.11991a.31782.31782,0,0,0-.35986.35987V66.26969Q120.76005,70.58953,117.448,70.59Z" transform="translate(-4.47977 -4.52582)"/><path class="cls-1" d="M155.24735,49.99821q-3.8877,2.08887-5.39941-1.08008-1.44141-3.16845,2.51953-4.89648,5.688-2.447,12.52832-10.36817c.14355-.1914.0957-.28808-.14356-.28808H152.80009q-4.31984,0-4.32032-3.02393,0-2.95166,4.32032-2.95215h15.83984a1.39091,1.39091,0,0,0,1.2959-.792l2.30371-4.67969c.0957-.1914.02344-.28808-.21582-.28808L161.512,22.63737q-4.1045.36108-4.82422-2.80762-.7207-3.09521,2.87988-4.82422a52.3799,52.3799,0,0,0,7.27246-4.39209,66.87587,66.87587,0,0,0,5.75977-4.31982q3.09522-3.09522,5.32812-.72022,2.231,2.4485-1.15234,5.25635a62.87937,62.87937,0,0,1-7.7041,5.03955c-.19238.144-.16895.21631.07227.21631l23.61621-.792q.35887,0,.07129-.21631-3.45558-2.66235-4.85938-3.564-1.40478-.89941.10742-3.34766,1.51318-2.376,5.18457-.144a89.2045,89.2045,0,0,1,7.63184,5.47168,64.14966,64.14966,0,0,1,6.66015,5.688q1.25831,1.44141-1.18847,3.74414-2.44776,2.30495-5.47168-.792l-.792-.792a2.614,2.614,0,0,0-2.08789-.792l-17.28028.72021a1.2,1.2,0,0,0-1.08008.86377,36.402,36.402,0,0,1-2.30371,4.96826c-.14355.19239-.09668.2876.14356.2876h30.88867q4.31982,0,4.31934,2.95215,0,3.02416-4.31934,3.02393H195.928c-.24121,0-.28808.09668-.14453.28808a46.92566,46.92566,0,0,0,8.28028,6.98389,42.22091,42.22091,0,0,0,6.876,4.06885q1.979.75585.6836,3.92382-1.36817,3.09669-5.32715,1.2959a48.45385,48.45385,0,0,1-8.64063-6.15625,51.62079,51.62079,0,0,1-9.14355-9.54,2.05332,2.05332,0,0,0-1.72852-.86425h-12.168a2.05157,2.05157,0,0,0-1.72753.86425,47.92882,47.92882,0,0,1-7.84864,8.71192q-.28857.21606.07227.144a84.11355,84.11355,0,0,0,9.792-2.95215,54.36765,54.36765,0,0,0,6.26465-2.44775q3.59911-2.231,5.11133,0,1.51171,2.30493-2.08789,4.752-3.38526,2.30566-13.53614,4.96778-3.74414.9375-4.42773-.10743a14.616,14.616,0,0,0-2.48438-2.62793.52467.52467,0,0,0-.792,0A45.218,45.218,0,0,1,155.24735,49.99821Zm7.84863,20.375q-4.31982.50391-4.60839-2.5918-.36036-3.09667,3.96-3.456a96.4801,96.4801,0,0,0,18.5039-3.67188q11.59131-3.38232,14.97656-6.624,3.167-2.95166,5.32813-.64746,2.231,2.3042-.86426,5.32812Q191.89579,66.91764,163.096,70.37321Zm5.1836-11.95117q-4.248.936-4.82422-1.94434-.50391-2.8081,3.74414-3.52832a79.70909,79.70909,0,0,0,9.7207-2.73535q8.13428-2.66309,10.15137-4.10449,3.52734-2.51953,5.18457-.28809,1.65528,2.30566-1.80078,4.89649Q185.05595,54.821,168.27958,58.422Z" transform="translate(-4.47977 -4.52582)"/><path class="cls-1" d="M225.08817,53.382q-4.31982,0-4.32031-3.24024,0-3.167,4.32031-3.168h35.7832q4.32129,0,4.32032,3.168,0,3.24024-4.32032,3.24024Zm30.8877,16.27148q-4.31983-.21533-4.1045-3.45605.28711-3.23877,4.6084-2.87989.43214.07325,7.55957.07227a6.28462,6.28462,0,0,0,3.81641-.86426q3.74268-3.02343,5.75976-24.19189a.3184.3184,0,0,0-.35937-.36035H233.00809q-4.68163,0-3.45605-4.53565a227.72528,227.72528,0,0,0,4.89551-23.47217q.71923-4.24731,4.03222-3.67187,3.38379.57714,2.5918,4.82373l-.43164,2.376c-.04883.24072.04687.36035.28808.36035h34.34375q4.31984,0,4.32032,3.168,0,3.23949-4.32032,3.23974H239.9202a.68091.68091,0,0,0-.7207.57617l-2.23145,10.584c-.04882.24072.04688.35986.28809.35986h39.31152q4.46339,0,4.03223,4.39209a171.64475,171.64475,0,0,1-2.84375,20.95264q-1.62012,7.1997-4.14063,9.64746a7.7587,7.7587,0,0,1-2.4121,1.83594q-.90089.32373-1.65528.6123a3.71215,3.71215,0,0,1-1.26074.28809q-2.15918.14355-4.24805.28808A60.56271,60.56271,0,0,1,255.97587,69.65348Z" transform="translate(-4.47977 -4.52582)"/></svg>