<svg xmlns="http://www.w3.org/2000/svg" viewBox="0 0 11.075 1.294"><path d="M.944.994H.216q-.03 0-.03-.03 0-.029.03-.029h.318V.653H.281q-.03 0-.03-.032 0-.03.03-.03h.254V.35H.24Q.21.35.21.318q0-.03.03-.03h.671q.03 0 .03.03 0 .032-.03.032H.598v.241h.277q.032 0 .032.03 0 .032-.032.032H.598v.281h.346q.03 0 .03.029 0 .03-.03.03zM.853.876Q.791.798.734.748.712.73.733.714.754.696.773.712q.101.097.128.134Q.914.864.89.881.868.897.853.876zM1.054.14H.091Q.07.141.07.161v.973q0 .019.021.019h.963q.021 0 .021-.019V.161q0-.021-.021-.021zM.061.077h1.027q.026 0 .041.017.017.015.017.041V1.16q0 .026-.017.041-.015.017-.041.017H.061q-.028 0-.043-.017-.015-.015-.015-.041V.135q0-.026.015-.041Q.033.077.061.077zM2.02.254h.458q.028 0 .043.017.015.015.015.041v.868q0 .041-.012.062-.012.022-.043.032-.041.012-.205.012-.048 0-.058-.03-.014-.04.052-.04.107.004.167 0 .021-.001.028-.01.007-.007.007-.026V.34q0-.021-.019-.021H2.02q-.004.11-.03.201.248.215.408.397.018.022-.011.044-.029.022-.044 0Q2.22.81 1.971.584q-.087.233-.328.386-.037.022-.056.001Q1.575.955 1.583.94q.01-.017.032-.029.101-.063.17-.139.069-.077.102-.157.033-.081.045-.147Q1.946.4 1.949.32H1.52q-.019 0-.019.021v.916q0 .033-.033.033t-.033-.033V.311q0-.026.015-.041.017-.017.043-.017h.458V.044q0-.034.036-.034.034 0 .034.034zM3.019 1.045q-.061.083-.13.152-.023.021-.047.003-.03-.025-.001-.052.139-.132.223-.305.012-.028.043-.019.036.011.021.044-.052.102-.109.178zm.911-.78h-.672q-.103.2-.212.356h.376v-.19q0-.032.034-.032.033 0 .033.032V.62h.386q.032 0 .032.034 0 .033-.033.033H3.49v.489q0 .037-.011.055-.01.018-.036.028-.043.012-.156.015-.045 0-.057-.029-.008-.022.007-.033.017-.01.045-.01.087.003.113 0 .015-.001.021-.007.006-.006.006-.021V.688h-.321l-.048.001-.041.003H2.98Q2.964.69 2.956.686 2.948.681 2.943.67q-.006-.017.006-.037.011-.021.04-.056.03-.036.043-.055.063-.101.147-.256h-.332q-.033 0-.033-.032 0-.033.033-.033h.364q.044-.09.073-.158.015-.037.05-.019.03.018.015.05L3.29.202h.641q.033 0 .033.033 0 .032-.033.032zm-.011.916q-.096-.145-.266-.314-.022-.021.001-.039.025-.018.047 0 .174.169.277.317.014.022-.015.041-.03.019-.044-.006zM5.394.327h-.686q-.007.147-.023.26h.511q.03 0 .043.025.012.023.007.088-.023.276-.045.394-.022.119-.058.154-.036.036-.103.037-.058.004-.189-.003-.043-.003-.05-.037L4.8 1.241q-.008-.015-.003-.022.006-.006.028-.004.105.008.196.008.048 0 .065-.017.065-.061.094-.514.001-.023-.003-.03-.003-.008-.014-.008h-.488q-.081.442-.407.616-.037.018-.058-.004-.028-.03.025-.056.099-.054.172-.134.074-.081.114-.163.041-.083.066-.193.026-.11.034-.194.008-.084.014-.2h-.413q-.033 0-.033-.032 0-.033.033-.033h.548v-.22q0-.034.034-.034t.034.034v.22h.555q.033 0 .033.033 0 .032-.033.032zm.693.278q.072-.219.084-.529l.001-.008.004-.006q.001-.003.006-.003l.007-.001h.02q.037 0 .034.036l-.001.015.008.099q.007.051.023.139.018.088.043.172.025.083.069.183.044.099.099.183.056.084.139.165.084.08.183.135.061.03.032.063-.022.023-.059.004-.131-.069-.234-.176-.102-.109-.167-.234-.063-.127-.102-.238-.037-.112-.062-.232-.106.63-.547.881-.034.021-.058-.003-.029-.03.018-.055.329-.185.46-.591zM8.192.238H7.28q-.096.194-.212.322-.022.023-.047.004-.032-.023-.004-.051.175-.186.277-.478.011-.032.043-.023.034.008.022.043-.025.066-.05.123h.883q.029 0 .029.029 0 .032-.029.032zM7.31.362h.784q.029 0 .029.03t-.029.03H7.31q-.03 0-.03-.03t.03-.03zm-.132.193h.759q.056 0 .061.081.034.586.176.586.029 0 .037-.123.001-.025.01-.041.01-.018.026-.007.015.011.015.052-.007.102-.026.143-.019.041-.068.041-.061 0-.105-.05t-.07-.146Q7.967.993 7.952.882 7.938.77 7.93.616h-.752q-.03 0-.03-.03 0-.032.03-.032zM9.077.066h.324q.028 0 .043.017.015.015.015.041v.299q0 .019.007.026.007.007.028.007h.098q.018 0 .025-.015.007-.017.01-.069.001-.032.012-.059.011-.028.029-.019.011.004.015.026.006.022.004.04-.006.092-.023.125-.018.032-.063.032h-.113q-.054 0-.073-.018Q9.394.48 9.394.423V.15q0-.019-.019-.019h-.271q-.019 0-.019.019v.056q0 .215-.149.34-.034.026-.055.006Q8.855.526 8.9.49q.12-.103.12-.284V.124q0-.026.015-.041.017-.017.043-.017zm-.633.23h.187V.041q0-.033.033-.033.032 0 .032.033v.255h.135q.033 0 .033.032 0 .033-.033.033h-.135v.321l.128-.043q.03-.01.037.021.004.028-.019.036l-.146.055v.445q0 .063-.041.08-.034.01-.128.01-.044 0-.054-.026-.012-.036.047-.036.068.003.085 0 .026 0 .026-.026V.774l-.087.033-.09.033Q8.422.852 8.41.818q-.015-.036.018-.045l.203-.068V.361h-.187q-.033 0-.033-.033 0-.032.033-.032zm1.053.389h-.451q.072.193.211.321.164-.134.24-.321zM8.963.62h.555q.066 0 .043.072-.079.209-.252.358.142.11.331.164.054.012.026.05-.018.023-.048.015-.207-.059-.362-.187-.165.123-.38.189-.03.008-.047-.018-.022-.036.025-.045.196-.056.353-.169-.127-.123-.204-.3-.017-.045.032-.062h-.07q-.032 0-.032-.033 0-.032.032-.032zM10.315.259h.265V.131h-.265zm.329.256h.251q.019 0 .019-.021V.338q0-.021-.019-.021h-.251zm-.065-.198h-.265v.198h.265zm-.329 0h-.234q-.021 0-.021.021v.157q0 .021.021.021h.234zM9.876.07h1.14q.029 0 .029.03t-.029.03h-.372v.128h.277q.026 0 .041.017.017.015.017.041v.197q0 .028-.017.043-.015.015-.041.015h-.93q-.028 0-.043-.015-.015-.015-.015-.043V.317q0-.026.015-.041.015-.017.043-.017h.259V.131h-.373q-.029 0-.029-.03t.029-.03zm.158.616h.838q.029 0 .029.028 0 .03-.029.03h-.838q-.029 0-.029-.03 0-.028.029-.028zm.022.455q-.088.068-.158.103-.025.012-.044-.006-.033-.029.008-.048.178-.09.276-.2.015-.018.04-.01.037.014.012.043-.052.056-.134.117zm.938.091q-.091-.077-.296-.201-.028-.015-.005-.036.021-.018.041-.007.181.099.306.198.023.018-.004.041-.023.019-.041.004zM9.864.864h1.178q.03 0 .03.029 0 .03-.03.03h-.557v.28q0 .034-.01.05-.008.017-.036.025-.036.011-.163.011-.041 0-.051-.025-.007-.018.008-.028.015-.008.039-.008.095.003.119 0 .026-.001.026-.025v-.28h-.554q-.029 0-.029-.03 0-.029.029-.029z"/></svg>