<svg id="图层_1" data-name="图层 1" xmlns="http://www.w3.org/2000/svg" viewBox="0 0 565.12842 66.19301"><defs><style>.cls-1{isolation:isolate;}</style></defs><g class="cls-1"><path d="M35.856,68.97656q-3.52881,0-3.52784-4.32031V46.44043a.31909.31909,0,0,0-.36035-.36035H14.04a.31835.31835,0,0,0-.35986.36035q0,3.8877-3.312,3.88769-3.38524,0-3.38427-4.31933V19.87207q0-4.31982,4.32031-4.31934H31.96777a.3187.3187,0,0,0,.36035-.36035V7.34473q0-4.32129,3.52784-4.32032,3.4563,0,3.456,4.32032v7.84765a.318.318,0,0,0,.35987.36035H60.6958q4.32056,0,4.32031,4.31934V45.64844q0,4.31982-3.456,4.32031-3.52881,0-3.52783-3.52832a.31909.31909,0,0,0-.36035-.36035h-18a.31836.31836,0,0,0-.35987.36035V64.65625Q39.312,68.97607,35.856,68.97656ZM13.68018,39.168a.31758.31758,0,0,0,.35986.36035H31.96777a.31831.31831,0,0,0,.36035-.36035V22.46387a.3184.3184,0,0,0-.36035-.35938H14.04a.31767.31767,0,0,0-.35986.35938Zm25.63183,0a.31759.31759,0,0,0,.35987.36035h18a.31832.31832,0,0,0,.36035-.36035V22.46387a.31841.31841,0,0,0-.36035-.35938h-18a.31767.31767,0,0,0-.35987.35938Z" transform="translate(-6.98389 -2.78519)"/><path d="M81.936,67.96875q-4.17627,1.29492-5.18409-2.16016-1.00928-3.52881,3.168-4.68066A60.8773,60.8773,0,0,0,102.96,48.96a.31866.31866,0,0,0,.07227-.50391A77.62709,77.62709,0,0,1,87.19189,22.53613a1.06945,1.06945,0,0,0-1.08007-.71972H80.13623q-4.32055,0-4.32031-3.24024,0-3.24023,4.32031-3.24023h56.01563q4.32056,0,4.32031,3.24023,0,3.24024-4.32031,3.24024h-6.11963a.90371.90371,0,0,0-.936.71972,71.76045,71.76045,0,0,1-15.48,25.84864.31785.31785,0,0,0,.07178.5039q11.59131,9.43214,22.248,12.09571,4.1748,1.00927,3.312,4.46386-.86426,3.45556-5.11182,2.30371A63.20918,63.20918,0,0,1,108.648,53.92871a.60771.60771,0,0,0-.86377,0A72.433,72.433,0,0,1,81.936,67.96875Zm26.13574-24.19238q.21606.28857.43213,0a59.554,59.554,0,0,0,13.17627-21.59961q.14282-.36036-.21631-.36035H94.24805q-.3611,0-.21582.36035A67.38366,67.38366,0,0,0,108.07178,43.77637Zm2.73633-29.30371q-3.74488,1.15283-4.96827-3.02442A12.70551,12.70551,0,0,0,104.688,8.92871q-2.08887-3.74414.936-5.54394,3.09448-1.79883,5.32813,1.7998a35.25957,35.25957,0,0,1,2.30371,4.03223Q114.55225,13.31983,110.80811,14.47266Z" transform="translate(-6.98389 -2.78519)"/><path d="M175.17578,68.47266q-4.31982,0-4.31982-3.38477,0-3.45557,4.31982-3.38379h1.22412q2.0874,0,2.52-.03613a1.26042,1.26042,0,0,0,.75586-.32324A1.30107,1.30107,0,0,0,180,60.33594V39.74414a.31825.31825,0,0,0-.35986-.35937H164.66406a57.75713,57.75713,0,0,1-6.83984-.14454c.09521-.0957,0-.38378-.28809-.86425l-.43213-.792q-2.376-4.03125-1.98-4.13964a2.89275,2.89275,0,0,0,1.08008-.82813q.68335-.71924,1.98-2.30371l1.65576-2.16016a77.37912,77.37912,0,0,0,5.9043-9.14355c.0957-.19141.02344-.28809-.21631-.28809H154.08008q-4.31982,0-4.32031-3.24023,0-3.167,4.32031-3.168H168.4082a1.44909,1.44909,0,0,0,1.36768-.792q1.94385-3.67236,2.52-5.04,1.65527-4.03125,5.18408-2.44824,3.5266,1.585,1.584,5.47168l-1.22412,2.5205q-.145.28858.21631.28809h27.71973q4.31982,0,4.32031,3.168,0,3.24022-4.32031,3.24023H175.03223a1.58409,1.58409,0,0,0-1.44043.86328,131.96453,131.96453,0,0,1-8.63965,13.03223c-.144.19238-.09668.28809.144.28809h14.54395A.31816.31816,0,0,0,180,32.544V27.43262q0-4.31983,3.38379-4.32032,3.38379,0,3.38428,4.32032V32.544a.31758.31758,0,0,0,.35986.36035h15.48q4.31982,0,4.32031,3.24023,0,3.24024-4.32031,3.24024h-15.48a.31766.31766,0,0,0-.35986.35937V60.48047a10.59331,10.59331,0,0,1-.72022,4.35547,3.62972,3.62972,0,0,1-1.65576,1.94433q-.93676.39552-2.87988,1.332Q180.719,68.47119,175.17578,68.47266Zm-17.71191-4.6084q-3.1692,2.95166-5.47168.36035-2.30566-2.59278-.64795-3.99609a41.157,41.157,0,0,0,5.11181-6.084,43.18665,43.18665,0,0,0,4.03174-6.04785q1.58351-3.95947,4.75244-2.66406,3.167,1.36816,1.44,5.32812a75.2276,75.2276,0,0,1-4.32032,6.624A55.79122,55.79122,0,0,1,157.46387,63.86426Zm51.48-.07227q-3.02344,1.65528-3.99561-.14355a67.87967,67.87967,0,0,0-5.14844-7.12793q-3.88769-4.89551-4.46386-5.47168-2.95312-3.16847-.792-5.18457,2.0874-2.0874,5.11181.93652,1.94459,1.94385,5.9043,6.624a63.776,63.776,0,0,1,5.36377,6.9834Q211.89575,62.13673,208.94385,63.792Z" transform="translate(-6.98389 -2.78519)"/><path d="M227.376,67.68066q-3.8174,2.08742-5.47217-1.08007-1.65673-3.16993,2.16015-5.11231,3.67237-1.8706,8.35206-9.14355a43.09633,43.09633,0,0,0,5.61621-14.9043,110.69275,110.69275,0,0,0,1.584-15.624.3191.3191,0,0,0-.36035-.36036H225.07178q-4.31983,0-4.31983-3.31152,0-3.24022,4.31983-3.24023H279.144q4.31984,0,4.31983,3.24023,0,3.312-4.31983,3.31152l-31.68017.14454a.46129.46129,0,0,0-.50391.43164l-.792,9.28808a.31758.31758,0,0,0,.35986.36035H272.376q4.39086,0,4.104,4.39161-1.00928,13.68016-2.23193,20.41211-1.22535,6.73242-1.87207,7.37988-1.51173,1.51171-2.1958,2.23242a6.60123,6.60123,0,0,1-2.34034,1.36719,13.927,13.927,0,0,1-3.81591.793,64.84935,64.84935,0,0,1-9.21582.07128q-4.31983-.28857-4.104-3.45605.21606-3.167,2.48389-2.9873,2.26831.18016,8.31592.17968a5.82351,5.82351,0,0,0,2.87988-.43164q.57569-.43212,1.332-1.08008.75658-.64891,1.80029-6.01269a157.66083,157.66083,0,0,0,1.90772-16.01953.31836.31836,0,0,0-.35987-.36035H245.73584a.58622.58622,0,0,0-.648.57617,49.83547,49.83547,0,0,1-6.26367,16.91992Q233.56762,64.29591,227.376,67.68066Zm27.86425-53.42382q-3.5288,1.15135-4.82421-2.95215A17.94384,17.94384,0,0,0,249.33594,9q-2.08887-3.74268.936-5.39941,3.02418-1.72852,5.18408,2.01562a35.31643,35.31643,0,0,1,2.55616,5.292Q258.76806,13.0337,255.24023,14.25684Z" transform="translate(-6.98389 -2.78519)"/><path d="M299.30469,67.24805q-3.81738,2.16064-5.54492-1.08008-1.72852-3.23877,2.16015-5.25586,7.84717-4.03125,15.04785-16.34375a65.40107,65.40107,0,0,0,7.55957-22.17578,124.7271,124.7271,0,0,0,1.29688-17.71192q0-1.51317,3.81543-1.44043,3.81591.07325,3.60058,4.46387l-.21582,4.248a26.29564,26.29564,0,0,0,.14356,3.88867,71.90873,71.90873,0,0,0,5.97558,21.67188q8.13575,18.07323,19.36817,23.04,3.95947,1.8003,2.44824,5.04-1.44141,3.31055-5.40039,1.43946-17.56786-8.27929-25.4873-34.91993-.07325-.35887-.14454,0Q317.16017,57.38379,299.30469,67.24805Z" transform="translate(-6.98389 -2.78519)"/><path d="M370.44043,30.24023q-3.09667,3.09669-5.47266.50391-2.44774-2.59131.86426-5.39941,1.15137-1.00782,5.43555-7.91993a58.2146,58.2146,0,0,0,5.58008-10.72851q1.36669-4.10449,4.60839-2.95215Q384.69629,4.97021,383.04,9l-.43164,1.15234c-.09668.24121-.02539.36036.21582.36036h39.456q4.31984,0,4.31934,2.80761,0,2.88135-4.31934,2.87989H380.5918a1.45047,1.45047,0,0,0-1.36817.792Q374.25635,26.42578,370.44043,30.24023Zm52.05566,38.73633q-6.91258,0-10.15234-9.28808-2.59131-7.415-3.24023-22.39258a.38165.38165,0,0,0-.43164-.43164H375.55176q-4.31982,0-4.31934-2.87988,0-2.87843,4.31934-2.87989h35.78418q4.31982,0,4.3916,4.32031a97.82772,97.82772,0,0,0,1.72851,17.35157q1.94385,9.57714,5.47168,9.57617,1.58351,0,1.65625-3.24024.07032-4.31982,2.376-4.248,2.376.07324,2.16016,4.39258a16.5369,16.5369,0,0,1-1.584,6.83984A5.2491,5.2491,0,0,1,422.49609,68.97656ZM383.04,26.208q-4.31982,0-4.32031-2.73535,0-2.73633,4.32031-2.73633h33.624q4.31983,0,4.32032,2.73633,0,2.73633-4.32032,2.73535Z" transform="translate(-6.98389 -2.78519)"/><path d="M441.57617,68.47266q-4.31982,0-4.32031-3.02442,0-3.02343,4.32031-2.95215,1.72706,0,2.44824-.03613c.47852-.02344.71973-.49121.71973-1.40332V44.49609q0-.35888-.36035-.28808l-3.81543,1.08008q-4.17774,1.15283-5.04-2.08789-.86425-3.167,3.38379-4.248l5.18359-1.2959a.74044.74044,0,0,0,.64844-.792V23.61621a.3182.3182,0,0,0-.36035-.35937h-4.53613q-4.31984,0-4.31934-3.09668,0-3.09522,4.31934-3.09571h4.53613a.31812.31812,0,0,0,.36035-.36035V7.34473q0-4.32129,3.24024-4.32032,3.23876,0,3.23925,4.32032V16.7041a.31773.31773,0,0,0,.36035.36035h3.67188q4.31982,0,4.32031,3.09571,0,3.09667-4.32031,3.09668H451.584a.31781.31781,0,0,0-.36035.35937V35.4248c0,.24024.11914.33594.36035.28711l1.22364-.35937q4.1748-1.15137,4.96875,1.7998.86279,2.95313-3.3125,4.17578l-2.5918.72071a.84686.84686,0,0,0-.64844.86328V61.12793a10.34083,10.34083,0,0,1-.61133,3.99609,3.24669,3.24669,0,0,1-1.40429,1.76465q-.79248.35889-2.66406,1.2959Q446.04,68.47169,441.57617,68.47266Zm18.86426-.14454q-4.24951,1.08106-4.96875-2.16015-.7207-3.312,3.60059-4.10352,5.03906-1.0078,12.59961-5.40039c.1914-.14355.1914-.28808,0-.43164q-6.33691-6.04833-8.78418-11.08789-1.94385-4.03125-.43165-4.53613c.23926-.0957.23926-.14453,0-.14453q-3.24023,0-3.24023-3.09571,0-3.167,4.32031-3.168l25.77539-.21582a13.09244,13.09244,0,0,1,4.89649.86425q2.16064.936.93554,4.96778-2.5913,8.28075-11.73535,16.416c-.19238.14356-.19238.28809,0,.43164q7.48681,4.39307,11.87989,5.25586,4.24658.794,3.52832,4.17676-.72071,3.38232-4.96875,2.376a47.32989,47.32989,0,0,1-15.76758-7.27246,1.07958,1.07958,0,0,0-1.2959,0A55.341,55.341,0,0,1,460.44043,68.32812Zm3.52734-37.15136q-3.81738,2.01563-5.25586-.792-1.44139-2.80811,2.376-4.82422a6.27709,6.27709,0,0,0,2.16016-2.73633q1.00781-1.87061,2.01562-3.74414.57569-1.22314.57617-5.832V9.792q0-4.31982,4.32032-4.31933H485.208q4.31982,0,4.3916,4.31933l.14453,12.24024a7.75574,7.75574,0,0,0,.14356,2.05175.5654.5654,0,0,0,.57617.32422q.43212,0,2.52051-.07226l1.94335-.07129q3.95947-.14355,4.82422,2.44726.791,2.66456-3.8164,2.95215l-3.38379.21582q-2.23242.14649-4.46387.14453a4.25013,4.25013,0,0,1-3.45605-1.87207q-1.44141-1.87206-1.43946-6.624V12.02441a.31929.31929,0,0,0-.36035-.36035H472.46387a.3189.3189,0,0,0-.36035.36035v1.43946Q472.10352,26.92871,463.96777,31.17676Zm13.17578,21.0957a.60828.60828,0,0,0,.86426,0A37.46819,37.46819,0,0,0,487.36816,40.752c.09571-.19043.02344-.28808-.21582-.28808H467.85645c-.24122,0-.31348.09765-.2168.28808A36.374,36.374,0,0,0,477.14355,52.27246Z" transform="translate(-6.98389 -2.78519)"/><path d="M532.36816,68.97656q-3.67236.07032-3.67187-2.87988,0-2.95312,4.31933-2.87988h.36036q2.01563,0,2.41211-.03614a.90473.90473,0,0,0,.90039-1.11621V51.624a.3186.3186,0,0,0-.36036-.35937H512.35156q-4.31982,0-4.31933-2.73633,0-2.66309,4.31933-2.66406H567.792q4.31983,0,4.32031,2.66406,0,2.7378-4.32031,2.73633H543.74414a.31782.31782,0,0,0-.36035.35937V62.28027a9.28633,9.28633,0,0,1-.61133,3.81641A3.94821,3.94821,0,0,1,540.50391,68.04a11.96516,11.96516,0,0,1-2.23145.7207q-2.23389.14356-4.46484.21582ZM517.46387,32.68848q-4.31984,0-4.32032-4.32032V20.08789q0-4.31982,4.32032-4.31934h10.7998a.31812.31812,0,0,0,.36035-.36035V11.376a.31821.31821,0,0,0-.36035-.35938H513.28809q-4.31984,0-4.32032-2.73633,0-2.66308,4.32032-2.66406h53.13574q4.31982,0,4.32031,2.66406,0,2.7378-4.32031,2.73633H551.16016a.31783.31783,0,0,0-.36036.35938V15.4082a.31774.31774,0,0,0,.36036.36035h11.66406q4.31982,0,4.31933,4.31934v8.28027q0,4.31984-4.31933,4.32032Zm-1.65625,33.1914q-4.31984,2.87988-3.96-2.376.14355-1.72705,4.32031-4.71582a37.39989,37.39989,0,0,0,4.752-3.708q2.66308-3.45556,5.11231-1.51172,2.44629,1.94385,1.25976,3.41992a27.60314,27.60314,0,0,1-4.06836,3.78027,40.45925,40.45925,0,0,1-3.74316,2.66407ZM520.99219,41.832q-4.31984,0-4.32031-2.66406,0-2.59131,4.32031-2.5918h38.16015q4.31984,0,4.31934,2.5918,0,2.66456-4.31934,2.66406Zm-1.584-14.54394a.31743.31743,0,0,0,.35938.36035h8.49609a.31812.31812,0,0,0,.36035-.36035V21.09668a.31851.31851,0,0,0-.36035-.36035h-8.49609a.31782.31782,0,0,0-.35938.36035ZM534.81641,15.4082a.31743.31743,0,0,0,.35937.36035h8.92774a.31812.31812,0,0,0,.36035-.36035V11.376a.31821.31821,0,0,0-.36035-.35938h-8.92774a.31752.31752,0,0,0-.35937.35938Zm0,11.87989a.31743.31743,0,0,0,.35937.36035h8.92774a.31812.31812,0,0,0,.36035-.36035V21.09668a.31851.31851,0,0,0-.36035-.36035h-8.92774a.31782.31782,0,0,0-.35937.36035Zm15.98339,0a.31774.31774,0,0,0,.36036.36035h9a.31782.31782,0,0,0,.35937-.36035V21.09668a.31821.31821,0,0,0-.35937-.36035h-9a.31813.31813,0,0,0-.36036.36035Zm18.14454,38.30468q-2.16064,2.44629-3.63672,1.04395a63.1755,63.1755,0,0,0-6.37207-4.78809q-4.68018-3.16845-6.33594-4.10449-1.65673-.93457-.43164-3.31152,1.29639-2.376,5.1123-.36035,7.9922,4.2495,10.43946,6.33593Q571.03173,63.21631,568.94434,65.59277Z" transform="translate(-6.98389 -2.78519)"/></g></svg>