<svg xmlns="http://www.w3.org/2000/svg" viewBox="0 0 4.028 1.315"><path d="M.206.147h.371q.03 0 .03.03 0 .029-.03.029H.319q.03.065.048.125.006.025-.023.034-.033.01-.04-.018Q.291.294.253.207h-.08Q.122.299.06.368.043.389.018.372-.011.351.012.325.113.216.18.043.191.014.222.022q.034.008.02.041-.016.04-.036.084zM.2.857h.393V.7H.237Q.219.788.2.857zm.835-.393H.66v.175h.375q.019 0 .019-.021V.484q0-.019-.019-.019zM.138.404h.923q.028 0 .043.017.015.015.015.041v.181q0 .028-.015.043Q1.088.7 1.061.7H.66v.157h.482q.061 0 .048.106-.025.205-.07.244-.028.028-.077.028-.052.003-.136-.001Q.866 1.231.862 1.2L.86 1.198v-.003q-.011-.028.026-.023.059.004.132.004.039 0 .051-.012.033-.029.054-.209.006-.036-.015-.036H.66v.345q0 .033-.033.033-.034 0-.034-.033V.933q-.095.101-.241.187-.145.087-.292.139-.026.008-.043-.011-.029-.034.017-.048.136-.044.27-.12T.526.917H.183L.18.928.178.937l-.003.01-.003.008-.004.007Q.165.967.162.967.16.966.156.97.151.974.147.972.143.969.136.97.102.963.11.936.14.839.173.686.183.639.234.639h.358V.464H.138q-.03 0-.03-.032 0-.029.03-.029zM.74.147h.485q.03 0 .03.03 0 .029-.03.029H.901q.054.068.081.13.011.025-.017.037Q.934.386.923.361.891.288.828.207H.704Q.649.292.573.365.55.387.525.368.493.343.526.316q.13-.12.193-.272Q.73.014.76.022.798.03.783.065.766.106.74.147zM2.694.657q0 .273-.193.466-.193.192-.464.192t-.464-.193Q1.38.929 1.38.658t.193-.464Q1.765 0 2.037 0q.271 0 .464.193t.193.464zM1.602.225q-.178.179-.178.433t.179.433q.179.179.433.179t.433-.178q.179-.179.179-.434T2.469.224q-.179-.18-.432-.18-.255 0-.434.181zm.251.096v.638q0 .055-.055.055T1.743.959V.416H1.66q-.037 0-.037-.04 0-.015.011-.028.011-.014.026-.017.04-.011.083-.033.025-.015.058-.015h.014q.039 0 .039.037zm.528.606q-.062.103-.165.103-.105 0-.167-.103-.062-.103-.062-.281 0-.178.062-.278.062-.102.167-.102.105 0 .165.102.062.101.062.278 0 .179-.062.281zM2.132.865q.03.072.084.072.054 0 .085-.073.032-.074.032-.218 0-.143-.032-.215Q2.269.36 2.216.36q-.054 0-.085.072-.032.072-.032.215 0 .136.033.219zM3.267.834h.356q.019 0 .019-.019V.484q0-.019-.019-.019h-.356q-.019 0-.019.019v.331q0 .019.019.019zm.382.062h-.408q-.056 0-.056-.058v-.38q0-.056.056-.056h.408q.058 0 .058.056v.38q0 .028-.015.043-.015.015-.043.015zm.284-.747h-.97q-.021 0-.021.021v.965q0 .019.021.019h.97q.021 0 .021-.019V.17q0-.021-.021-.021zm-1-.068h1.032q.026 0 .041.017.017.015.017.041V1.16q0 .028-.017.043-.015.015-.041.015H2.932q-.028 0-.043-.015-.015-.015-.015-.043V.139q0-.026.015-.041.015-.017.043-.017z"/></svg>